<svg xmlns="http://www.w3.org/2000/svg" xmlns:xlink="http://www.w3.org/1999/xlink" width="1080" zoomAndPan="magnify" viewBox="0 0 810 809.999993" height="1080" preserveAspectRatio="xMidYMid meet" version="1.0"><path fill="#5eead4" d="M 611.511719 261.492188 L 709.777344 138.660156 C 713.894531 133.167969 713.894531 127.679688 711.152344 122.183594 L 656.234375 39.8125 C 653.488281 37.066406 649.371094 34.320312 645.253906 34.320312 L 453.050781 34.320312 C 448.933594 34.320312 444.8125 37.066406 440.695312 39.8125 L 385.78125 122.183594 C 383.367188 127.011719 383.078125 132.902344 385.839844 137.054688 C 386.671875 138.769531 387.847656 140.222656 389.3125 141.359375 L 485.648438 261.785156 C 457.558594 268.910156 430.734375 280.980469 405.828125 298.21875 C 362.28125 268.734375 312.796875 253.984375 260.847656 253.984375 C 116.695312 253.984375 0 370.679688 0 514.832031 C 0 658.984375 116.695312 775.679688 260.847656 775.679688 C 312.136719 775.679688 361.027344 761.300781 404.171875 731.441406 C 447.71875 760.925781 497.207031 775.679688 549.152344 775.679688 C 693.304688 775.679688 810 658.984375 810 514.832031 C 810 392.175781 725.511719 289.421875 611.511719 261.492188 Z M 426.722656 144.152344 L 461.285156 144.152344 L 516.203125 199.070312 L 470.777344 199.070312 Z M 499.730469 116.695312 L 549.152344 67.269531 L 598.578125 116.695312 Z M 598.574219 144.152344 L 549.152344 193.578125 L 499.726562 144.152344 Z M 637.015625 144.152344 L 670.375 144.152344 L 626.925781 199.070312 L 582.105469 199.070312 Z M 674.253906 116.695312 L 637.015625 116.695312 L 582.101562 61.78125 L 638.390625 61.78125 Z M 459.914062 61.78125 L 516.203125 61.78125 L 461.289062 116.695312 L 422.933594 116.695312 Z M 514.832031 253.984375 L 492.804688 226.523438 L 605.199219 226.523438 L 583.476562 253.984375 Z M 27.457031 514.832031 C 27.457031 385.78125 131.796875 281.441406 260.847656 281.441406 C 310.269531 281.441406 356.949219 296.542969 396.761719 326.746094 C 401.222656 329.835938 405.597656 333.097656 409.871094 336.527344 C 414.136719 339.960938 418.300781 343.5625 422.332031 347.339844 C 426.367188 351.113281 430.269531 355.0625 434.023438 359.179688 C 435.898438 361.242188 437.738281 363.34375 439.539062 365.488281 C 441.335938 367.632812 443.097656 369.820312 444.8125 372.050781 C 477.761719 413.238281 494.238281 462.660156 494.238281 514.832031 C 494.238281 562.773438 479.199219 607.976562 451.859375 647.726562 C 445.992188 643.566406 440.355469 639.054688 435.050781 634.136719 C 430.09375 629.464844 425.457031 624.480469 421.472656 619.167969 C 442.066406 587.59375 453.050781 551.898438 453.050781 514.828125 C 453.050781 473.644531 440.695312 435.203125 415.984375 402.253906 C 415.039062 400.964844 414.085938 399.695312 413.117188 398.441406 C 401.53125 383.378906 388.351562 370.582031 373 359.480469 C 369.160156 356.703125 365.1875 354.03125 361.070312 351.457031 C 360.519531 351.042969 359.9375 350.703125 359.335938 350.398438 C 329.554688 331.902344 295.863281 322.625 260.847656 322.625 C 155.136719 322.625 68.644531 409.117188 68.644531 514.832031 C 68.644531 620.542969 155.132812 707.035156 260.847656 707.035156 C 292.054688 707.035156 323.257812 698.976562 350.488281 684.210938 C 359.804688 694.953125 370.046875 704.851562 381.234375 714.144531 C 344.277344 735.953125 303.246094 748.222656 260.847656 748.222656 C 131.796875 748.21875 27.457031 643.882812 27.457031 514.832031 Z M 476.148438 367.210938 C 498.90625 355.808594 524.027344 350.085938 549.152344 350.085938 C 639.765625 350.085938 713.898438 424.222656 713.898438 514.832031 C 713.898438 605.441406 639.765625 679.578125 549.152344 679.578125 C 524.027344 679.578125 498.90625 673.855469 476.148438 662.453125 C 505.824219 618.707031 521.695312 568.472656 521.695312 514.835938 C 521.695312 461.195312 505.824219 410.957031 476.148438 367.210938 Z M 384.40625 514.832031 C 384.40625 487.105469 391.582031 459.386719 405.191406 435.28125 C 418.546875 459.925781 425.59375 487.375 425.59375 514.832031 C 425.59375 542.554688 418.417969 570.277344 404.808594 594.382812 C 391.453125 569.738281 384.40625 542.285156 384.40625 514.832031 Z M 333.851562 367.210938 C 304.175781 410.957031 288.304688 461.195312 288.304688 514.832031 C 288.304688 568.46875 304.175781 618.703125 333.851562 662.453125 C 311.09375 673.855469 285.972656 679.574219 260.847656 679.574219 C 170.234375 679.574219 96.101562 605.441406 96.101562 514.828125 C 96.101562 424.21875 170.234375 350.082031 260.847656 350.082031 C 285.972656 350.085938 311.09375 355.808594 333.851562 367.210938 Z M 549.152344 748.21875 C 499.730469 748.21875 453.050781 733.117188 413.238281 702.914062 C 397.621094 692.105469 383.054688 679.191406 370.460938 664.175781 C 368.664062 662.03125 366.902344 659.839844 365.1875 657.609375 C 332.238281 616.425781 315.761719 567 315.761719 514.832031 C 315.761719 466.890625 330.800781 421.683594 358.140625 381.9375 C 360.890625 383.886719 363.59375 385.914062 366.234375 388.023438 C 374.054688 394.738281 381.289062 402.226562 388.523438 410.492188 C 367.929688 442.070312 356.949219 477.765625 356.949219 514.832031 C 356.949219 556.019531 369.304688 594.460938 394.015625 627.410156 C 409.117188 648 426.964844 664.476562 448.929688 678.203125 C 449.480469 678.617188 450.0625 678.957031 450.664062 679.261719 C 480.445312 697.761719 514.136719 707.035156 549.152344 707.035156 C 654.863281 707.035156 741.355469 620.542969 741.355469 514.832031 C 741.355469 409.117188 654.867188 322.625 549.152344 322.625 C 517.945312 322.625 486.742188 330.6875 459.511719 345.453125 C 450.195312 334.707031 439.953125 324.808594 428.765625 315.519531 C 465.722656 293.707031 506.753906 281.441406 549.152344 281.441406 C 678.203125 281.441406 782.542969 385.78125 782.542969 514.828125 C 782.542969 643.878906 678.203125 748.21875 549.152344 748.21875 Z M 549.152344 748.21875 " fill-opacity="1" fill-rule="nonzero"/></svg>